<svg xmlns="http://www.w3.org/2000/svg" id="Group_1" data-name="Group 1" width="552.921" height="184.21" viewBox="0 0 552.921 184.21"><path id="Path_1" data-name="Path 1" d="M366.34,237h36.83v9.06H376.51V257.6h22.75v9.06H376.51V280.1h26.66v9.07H366.34Z" transform="translate(-198.88 -194.95)" fill="#262161"></path><path id="Path_2" data-name="Path 2" d="M419.67,287.11a19.4,19.4,0,0,1-7.27-7.72,25.78,25.78,0,0,1,0-22.79A19.43,19.43,0,0,1,430,246.07a18.38,18.38,0,0,1,7.59,1.53,16.321,16.321,0,0,1,5.84,4.4V237h10.1v52.16h-9.91v-5.28a16.3,16.3,0,0,1-5.9,4.43,18.68,18.68,0,0,1-7.72,1.56A19.75,19.75,0,0,1,419.67,287.11Zm1.95-12.48a10.77,10.77,0,0,0,4.18,4.43,12.73,12.73,0,0,0,12.25,0,10.77,10.77,0,0,0,4.18-4.43,15.36,15.36,0,0,0,0-13.24,11,11,0,0,0-4.18-4.46,12.52,12.52,0,0,0-12.25,0,11,11,0,0,0-4.18,4.46,15.45,15.45,0,0,0,0,13.24Z" transform="translate(-198.88 -194.95)" fill="#262161"></path><path id="Path_3" data-name="Path 3" d="M501.56,289.17H491.45v-5.41a9.38,9.38,0,0,1-4,4.2,14.27,14.27,0,0,1-7.66,1.92,16.65,16.65,0,0,1-8.7-2.31,16.42,16.42,0,0,1-6.13-6.52,20.06,20.06,0,0,1-2.25-9.62V246.79h10.17v24.45a9.6,9.6,0,0,0,2.54,6.94,9.86,9.86,0,0,0,13.43,0,9.56,9.56,0,0,0,2.55-6.94V246.79h10.17Z" transform="translate(-198.88 -194.95)" fill="#262161"></path><path id="Path_4" data-name="Path 4" d="M505.47,246.79H516l11.48,30,11.41-30h10.49l-16.82,42.38H522.35Z" transform="translate(-198.88 -194.95)" fill="#262161"></path><path id="Path_5" data-name="Path 5" d="M596.74,268.24A23,23,0,0,0,594,257a20.37,20.37,0,0,0-7.85-8,22.86,22.86,0,0,0-11.61-2.93,23.28,23.28,0,0,0-11.41,2.77,20,20,0,0,0-7.86,7.79,24.65,24.65,0,0,0-.06,22.82,19.565,19.565,0,0,0,2.71,3.77c3.85-1.34,7.86-3.09,10.11-4.11a12.644,12.644,0,0,1-1.21-.86A10.15,10.15,0,0,1,563,271.3h33.58A24.643,24.643,0,0,0,596.74,268.24Zm-33.31-4.76a11.6,11.6,0,0,1,4.17-6.16,11.41,11.41,0,0,1,7-2.25,11.07,11.07,0,0,1,6.88,2.25,12.14,12.14,0,0,1,4.21,6.09Z" transform="translate(-198.88 -194.95)" fill="#fc1027"></path><path id="Path_6" data-name="Path 6" d="M604.57,246.79h10v6.06a12,12,0,0,1,3.81-4.4,12.23,12.23,0,0,1,6.75-2.38v10.3a10.08,10.08,0,0,0-7.6,2.94,10.76,10.76,0,0,0-2.83,7.82v22H604.57Z" transform="translate(-198.88 -194.95)" fill="#262161"></path><path id="Path_7" data-name="Path 7" d="M637.23,287.86a14.37,14.37,0,0,1-6-5.67,16.34,16.34,0,0,1-2.12-8.34h10a6.7,6.7,0,0,0,2.12,5.11,7.71,7.71,0,0,0,5.51,2,9,9,0,0,0,4.5-1.11,3.44,3.44,0,0,0,2-3.13,3,3,0,0,0-1.46-2.77,22.482,22.482,0,0,0-4.86-1.85,25.739,25.739,0,0,1-2.67-.79l-1.5-.45a45.546,45.546,0,0,1-6.39-2.42,11.27,11.27,0,0,1-4.14-3.48,9.92,9.92,0,0,1-1.73-6.1,12.41,12.41,0,0,1,1.89-6.81,12.8,12.8,0,0,1,5.25-4.63,17.16,17.16,0,0,1,7.72-1.66,18.63,18.63,0,0,1,8.12,1.72,14.09,14.09,0,0,1,5.71,4.83,12.14,12.14,0,0,1,2.08,6.94h-10a4,4,0,0,0-1.6-3.23,6.19,6.19,0,0,0-3.95-1.27,5.92,5.92,0,0,0-3.65,1.08,3.39,3.39,0,0,0-1.43,2.83,2.78,2.78,0,0,0,1.43,2.55,25.32,25.32,0,0,0,4.83,1.89,14.366,14.366,0,0,1,1.82.52c3.35,1,5.91,1.93,7.7,2.67a12.27,12.27,0,0,1,4.72,3.56,9.85,9.85,0,0,1,2.06,6.55,12.18,12.18,0,0,1-2.15,7.17,13.63,13.63,0,0,1-6,4.69,22.349,22.349,0,0,1-8.8,1.63,19.31,19.31,0,0,1-9.01-2.03Z" transform="translate(-198.88 -194.95)" fill="#262161"></path><path id="Path_8" data-name="Path 8" d="M678.89,287.15a19.54,19.54,0,0,1-7.73-7.7,24.61,24.61,0,0,1,.07-22.82,20,20,0,0,1,7.86-7.79,23.28,23.28,0,0,1,11.41-2.77A22.76,22.76,0,0,1,702.1,249a20.37,20.37,0,0,1,7.86,8,23.09,23.09,0,0,1,2.77,11.25,24.685,24.685,0,0,1-.2,3.06H679a10.08,10.08,0,0,0,3.81,6.95,11.8,11.8,0,0,0,7.6,2.64,12.57,12.57,0,0,0,6.42-1.73,10.36,10.36,0,0,0,4.33-4.73h10.69a21.33,21.33,0,0,1-7.88,11.31,22.62,22.62,0,0,1-13.7,4.14A23.09,23.09,0,0,1,678.89,287.15Zm22.82-23.74a12.08,12.08,0,0,0-4.21-6.09,11,11,0,0,0-6.87-2.25,11.42,11.42,0,0,0-7,2.25,11.6,11.6,0,0,0-4.17,6.16Z" transform="translate(-198.88 -194.95)" fill="#262161"></path><path id="Path_9" data-name="Path 9" d="M365.7,294.7h36.84v9.06H375.87V315.3h22.76v9.07H375.87V337.8h26.67v9.06H365.7Z" transform="translate(-198.88 -194.95)" fill="#262161"></path><path id="Path_10" data-name="Path 10" d="M419,344.81a19.49,19.49,0,0,1-7.27-7.73,25.78,25.78,0,0,1,0-22.79,19.43,19.43,0,0,1,17.61-10.53A18.38,18.38,0,0,1,437,305.3a16.09,16.09,0,0,1,5.84,4.4v-15h10.1v52.16H443v-5.28a16.21,16.21,0,0,1-5.9,4.43,18.69,18.69,0,0,1-7.72,1.57A19.87,19.87,0,0,1,419,344.81Zm2-12.49a10.81,10.81,0,0,0,4.17,4.43,12.75,12.75,0,0,0,12.26,0,10.81,10.81,0,0,0,4.17-4.43,15.36,15.36,0,0,0,0-13.24,11,11,0,0,0-4.17-4.46,12.54,12.54,0,0,0-12.26,0,11,11,0,0,0-4.17,4.46,15.36,15.36,0,0,0,0,13.24Z" transform="translate(-198.88 -194.95)" fill="#262161"></path><path id="Path_11" data-name="Path 11" d="M500.92,346.86H490.81v-5.41a9.33,9.33,0,0,1-4,4.2,14.28,14.28,0,0,1-7.66,1.93,16.591,16.591,0,0,1-8.7-2.32,16.35,16.35,0,0,1-6.13-6.52,20.05,20.05,0,0,1-2.25-9.61V304.48h10.17v24.45a9.6,9.6,0,0,0,2.54,6.94,9.87,9.87,0,0,0,13.44,0,9.6,9.6,0,0,0,2.54-6.94V304.48h10.17Z" transform="translate(-198.88 -194.95)" fill="#262161"></path><path id="Path_12" data-name="Path 12" d="M597.26,273.88s-3.6,11.37-20.6,18.58c-8.83,3.74-25.62,6.84-38.83,12.31-12.26,5.09-21.45,12.21-18.4,23.78a12.471,12.471,0,0,0,1.28,3.73,11.06,11.06,0,0,0,10.07,6.1,11.81,11.81,0,0,0,7-2.11,11.32,11.32,0,0,0,4.23-5.91h10.57a21.369,21.369,0,0,1-4.08,9.1,20.269,20.269,0,0,1-7.63,6,24,24,0,0,1-10.2,2.13,23,23,0,0,1-11.25-2.74,19.9,19.9,0,0,1-7.82-7.73,21.6,21.6,0,0,1-2.68-8.56h-.17s-3.26-18.38,13.77-26.78c31.57-15.56,57.76-15.83,62.4-27.89Z" transform="translate(-198.88 -194.95)" fill="#fc1027"></path><path id="Path_13" data-name="Path 13" d="M567.91,344.81a19.73,19.73,0,0,1-7.27-7.76,25.63,25.63,0,0,1,0-22.82,19.44,19.44,0,0,1,7.27-7.73,19.84,19.84,0,0,1,10.33-2.74,18.54,18.54,0,0,1,7.66,1.57,16.3,16.3,0,0,1,5.9,4.43v-5.28h10v42.38h-10v-5.35a16,16,0,0,1-5.87,4.5,18.451,18.451,0,0,1-7.69,1.57,19.68,19.68,0,0,1-10.33-2.77Zm1.92-12.56a11,11,0,0,0,4.17,4.47,12.54,12.54,0,0,0,12.26,0,11,11,0,0,0,4.17-4.47,15.34,15.34,0,0,0,0-13.23,10.81,10.81,0,0,0-4.17-4.43,12.75,12.75,0,0,0-12.26,0,10.81,10.81,0,0,0-4.17,4.43,15.34,15.34,0,0,0,0,13.23Z" transform="translate(-198.88 -194.95)" fill="#262161"></path><path id="Path_14" data-name="Path 14" d="M616.19,313.61h-7.83v-9.13h7.83V294.7h10.17v9.78h7.76v9.13h-7.76v33.25H616.19Z" transform="translate(-198.88 -194.95)" fill="#262161"></path><path id="Path_15" data-name="Path 15" d="M640.64,294.7h10.17v9.13H640.64Zm0,15.39h10.17v36.77H640.64Z" transform="translate(-198.88 -194.95)" fill="#262161"></path><path id="Path_16" data-name="Path 16" d="M669.29,344.84a19.5,19.5,0,0,1-7.86-7.73,24.71,24.71,0,0,1,0-22.85,19.811,19.811,0,0,1,7.86-7.73,25.55,25.55,0,0,1,23.14,0,19.81,19.81,0,0,1,7.86,7.73,24.71,24.71,0,0,1,0,22.85,19.5,19.5,0,0,1-7.86,7.73,25.8,25.8,0,0,1-23.14,0Zm1.27-12.52a11.111,11.111,0,0,0,4.17,4.47,11.771,11.771,0,0,0,6.13,1.59,11.93,11.93,0,0,0,6.16-1.59,11,11,0,0,0,4.21-4.47,15.42,15.42,0,0,0,0-13.27,11,11,0,0,0-4.21-4.5,11.93,11.93,0,0,0-6.16-1.59,11.77,11.77,0,0,0-6.13,1.59,11.06,11.06,0,0,0-4.17,4.5A15.42,15.42,0,0,0,670.56,332.32Z" transform="translate(-198.88 -194.95)" fill="#262161"></path><path id="Path_17" data-name="Path 17" d="M710.92,304.48H721v5.41a9.38,9.38,0,0,1,4-4.2,14.3,14.3,0,0,1,7.66-1.93,16.72,16.72,0,0,1,8.71,2.32,16.33,16.33,0,0,1,6.12,6.52,20.05,20.05,0,0,1,2.25,9.61v24.65H739.6V322.41a9.56,9.56,0,0,0-2.54-6.94,9.86,9.86,0,0,0-13.43,0,9.56,9.56,0,0,0-2.54,6.94v24.45H710.92Z" transform="translate(-198.88 -194.95)" fill="#262161"></path><path id="Path_18" data-name="Path 18" d="M363.47,363.41h2.68v11.33h7v2.41h-9.72Z" transform="translate(-198.88 -194.95)"></path><path id="Path_19" data-name="Path 19" d="M382.77,363.41h9.71v2.39h-7v3h6v2.38h-6v3.54h7v2.39h-9.71Z" transform="translate(-198.88 -194.95)"></path><path id="Path_20" data-name="Path 20" d="M407,363.41h2.68l5.46,13.74h-2.76l-1.29-3.37h-5.46l-1.29,3.37h-2.77Zm3.18,8-1.82-4.76-1.84,4.76Z" transform="translate(-198.88 -194.95)"></path><path id="Path_21" data-name="Path 21" d="M424.54,363.41h6.13a5,5,0,0,1,2.32.53,4,4,0,0,1,1.58,1.48,4.1,4.1,0,0,1,.57,2.16,3.94,3.94,0,0,1-.84,2.48,4.29,4.29,0,0,1-2.22,1.51l3.75,5.58h-3.06l-3.57-5.38h-2v5.38h-2.68Zm6.08,6a1.71,1.71,0,0,0,1.28-.5,1.78,1.78,0,0,0-1.28-3.06h-3.4v3.56Z" transform="translate(-198.88 -194.95)"></path><path id="Path_22" data-name="Path 22" d="M445.26,363.41H449l4.89,10.13V363.41h2.68v13.74h-3.69L447.93,367v10.14h-2.67Z" transform="translate(-198.88 -194.95)"></path><path id="Path_23" data-name="Path 23" d="M466.1,378.4l1.29-4.46,2.63.85-1.63,4.37Z" transform="translate(-198.88 -194.95)"></path><path id="Path_24" data-name="Path 24" d="M495.55,376.44a6.28,6.28,0,0,1-2.53-2.5,7.28,7.28,0,0,1-.91-3.68,7.39,7.39,0,0,1,.89-3.67,6.25,6.25,0,0,1,2.48-2.49,7.22,7.22,0,0,1,3.58-.88,7.081,7.081,0,0,1,3.16.71,6.75,6.75,0,0,1,2.41,2,6.89,6.89,0,0,1,1.28,2.92H503.1a4.52,4.52,0,0,0-1.5-2.31,3.91,3.91,0,0,0-2.54-.87,4.023,4.023,0,0,0-3.65,2.21,5.16,5.16,0,0,0-.54,2.39,5.07,5.07,0,0,0,.56,2.41,4,4,0,0,0,1.55,1.64,4.41,4.41,0,0,0,2.27.59,5.09,5.09,0,0,0,2.57-.62,2.56,2.56,0,0,0,1.31-1.68h-4.46v-2.2H506a7.47,7.47,0,0,1-.85,3.62,6,6,0,0,1-2.38,2.45,6.909,6.909,0,0,1-3.5.87,7.51,7.51,0,0,1-3.72-.91Z" transform="translate(-198.88 -194.95)"></path><path id="Path_25" data-name="Path 25" d="M515.91,363.41H522a5,5,0,0,1,2.32.53,4,4,0,0,1,1.58,1.48,4.1,4.1,0,0,1,.57,2.16,3.94,3.94,0,0,1-.84,2.48,4.33,4.33,0,0,1-2.22,1.51l3.74,5.58H524.1l-3.58-5.38h-2v5.38h-2.68Zm6.08,6a1.83,1.83,0,0,0,1.28-3.07,1.76,1.76,0,0,0-1.28-.49h-3.4v3.56Z" transform="translate(-198.88 -194.95)"></path><path id="Path_26" data-name="Path 26" d="M539.38,376.44a6.28,6.28,0,0,1-2.53-2.5,7.88,7.88,0,0,1,0-7.35,6.32,6.32,0,0,1,2.53-2.49,8.22,8.22,0,0,1,7.4,0,6.32,6.32,0,0,1,2.53,2.49,7.88,7.88,0,0,1,0,7.35,6.281,6.281,0,0,1-2.53,2.5A8.06,8.06,0,0,1,539.38,376.44Zm-.12-3.77a4,4,0,0,0,1.55,1.64,4.68,4.68,0,0,0,4.55,0,4,4,0,0,0,1.55-1.63,5.08,5.08,0,0,0,.55-2.42,5,5,0,0,0-.55-2.4,4,4,0,0,0-1.55-1.63,4.83,4.83,0,0,0-4.55,0,4.06,4.06,0,0,0-1.55,1.63A5.44,5.44,0,0,0,539.26,372.67Z" transform="translate(-198.88 -194.95)"></path><path id="Path_27" data-name="Path 27" d="M558.61,363.41h2.74l2.68,10,3.18-10h2.95l3.15,10,2.69-10h2.75l-3.91,13.74H572l-3.35-10-3.35,10h-2.8Z" transform="translate(-198.88 -194.95)"></path><path id="Path_28" data-name="Path 28" d="M585.76,378.4l1.29-4.46,2.63.85L588,379.16Z" transform="translate(-198.88 -194.95)"></path><path id="Path_29" data-name="Path 29" d="M614.29,376.74a4.42,4.42,0,0,1-2.53-4.11h2.77a2.21,2.21,0,0,0,.67,1.68,2.61,2.61,0,0,0,1.8.69,2.46,2.46,0,0,0,1.45-.4,1.32,1.32,0,0,0,.56-1.15,1.35,1.35,0,0,0-.3-.89,2.629,2.629,0,0,0-.77-.61c-.32-.17-.79-.37-1.42-.63l-.32-.13a24.68,24.68,0,0,1-2.33-1.07,3.94,3.94,0,0,1-1.33-1.16,3,3,0,0,1-.52-1.83,3.43,3.43,0,0,1,.63-2.07,4,4,0,0,1,1.69-1.34,5.89,5.89,0,0,1,2.32-.45,5,5,0,0,1,2.41.55,3.8,3.8,0,0,1,1.57,1.53,4.471,4.471,0,0,1,.55,2.25h-2.66a1.83,1.83,0,0,0-1.92-1.93,2,2,0,0,0-1.31.43,1.31,1.31,0,0,0-.51,1,1,1,0,0,0,.29.73,2.549,2.549,0,0,0,.77.53c.32.15.81.35,1.46.6l.62.22a13.1,13.1,0,0,1,2.1,1,3.71,3.71,0,0,1,1.29,1.26,3.48,3.48,0,0,1,.48,1.88,3.7,3.7,0,0,1-2.31,3.58,6,6,0,0,1-2.47.48,6.09,6.09,0,0,1-2.73-.64Z" transform="translate(-198.88 -194.95)"></path><path id="Path_30" data-name="Path 30" d="M634.29,376.62a5.15,5.15,0,0,1-2-2,6,6,0,0,1-.71-2.92v-8.28h2.68V372a3,3,0,1,0,5.91,0v-8.55h2.68v8.28a5.91,5.91,0,0,1-.72,2.92,5.09,5.09,0,0,1-2,2,6.28,6.28,0,0,1-5.84,0Z" transform="translate(-198.88 -194.95)"></path><path id="Path_31" data-name="Path 31" d="M656,376.44a6.34,6.34,0,0,1-2.48-2.5,7.38,7.38,0,0,1-.9-3.68,7.49,7.49,0,0,1,.89-3.67A6.32,6.32,0,0,1,656,364.1a7.63,7.63,0,0,1,6.77-.17,6.59,6.59,0,0,1,2.41,2,7.35,7.35,0,0,1,1.28,2.94h-2.82a4.481,4.481,0,0,0-1.51-2.33,3.92,3.92,0,0,0-2.54-.88,4,4,0,0,0-3.64,2.2,5.53,5.53,0,0,0,0,4.81,4.14,4.14,0,0,0,7.74-1h2.8a6.65,6.65,0,0,1-1.23,3,6.39,6.39,0,0,1-2.41,2,7.379,7.379,0,0,1-3.25.71A7.17,7.17,0,0,1,656,376.44Z" transform="translate(-198.88 -194.95)"></path><path id="Path_32" data-name="Path 32" d="M679.08,376.44a6.34,6.34,0,0,1-2.48-2.5,7.38,7.38,0,0,1-.9-3.68,7.489,7.489,0,0,1,.89-3.67,6.32,6.32,0,0,1,2.48-2.49,7.63,7.63,0,0,1,6.77-.17,6.591,6.591,0,0,1,2.41,2,7.35,7.35,0,0,1,1.28,2.94h-2.82a4.48,4.48,0,0,0-1.51-2.33,3.92,3.92,0,0,0-2.54-.88,4.009,4.009,0,0,0-3.64,2.2,5.53,5.53,0,0,0,0,4.81,4.14,4.14,0,0,0,7.74-1h2.8a6.65,6.65,0,0,1-1.23,3,6.39,6.39,0,0,1-2.41,2,7.38,7.38,0,0,1-3.25.71,7.14,7.14,0,0,1-3.59-.94Z" transform="translate(-198.88 -194.95)"></path><path id="Path_33" data-name="Path 33" d="M699.49,363.41h9.7v2.39h-7v3h6v2.38h-6v3.54h7v2.39h-9.7Z" transform="translate(-198.88 -194.95)"></path><path id="Path_34" data-name="Path 34" d="M719.48,363.41h9.7v2.39h-7v3h6v2.38h-6v3.54h7v2.39h-9.7Z" transform="translate(-198.88 -194.95)"></path><path id="Path_35" data-name="Path 35" d="M739.47,363.41h5.24a7.49,7.49,0,0,1,3.67.88,6.35,6.35,0,0,1,2.52,2.46,7.08,7.08,0,0,1,.9,3.58,6.921,6.921,0,0,1-.9,3.53,6.25,6.25,0,0,1-2.52,2.42,7.6,7.6,0,0,1-3.67.87h-5.24Zm5.19,11.3a4.59,4.59,0,0,0,2.28-.56,3.92,3.92,0,0,0,1.55-1.55,4.711,4.711,0,0,0,.55-2.27,4.921,4.921,0,0,0-.55-2.33,4,4,0,0,0-1.55-1.59,4.59,4.59,0,0,0-2.28-.56h-2.51v8.86Z" transform="translate(-198.88 -194.95)"></path><path id="Path_36" data-name="Path 36" d="M150.23,42.8V69.64L101.22,94.63l-26.3,13.41L33.67,86.94V60.1L74.92,81.21Z" fill="#fc1027"></path><path id="Path_37" data-name="Path 37" d="M124.23,94.14v26.83l-23.01,11.74-26.3,13.41L33.09,125.07V98.23l41.83,21.06Z" fill="#e20525"></path><path id="Path_38" data-name="Path 38" d="M150.23,118.97V145.8l-49.01,24.99L74.92,184.2,33.09,162.68V135.85l41.83,21.52Z" fill="#bc0024"></path><rect id="Rectangle_1" data-name="Rectangle 1" width="6.55" height="72.27" transform="translate(21.62 39.38)" fill="#262161"></rect><path id="Path_39" data-name="Path 39" d="M16.12,121.14H33.67l-5.5-9.49H21.62Z" fill="#262161"></path><path id="Path_40" data-name="Path 40" d="M145.56,39.38,116.22,54.23,93.58,65.85l-3.4,1.74L74.32,75.35,57.99,66.68l-2.56-1.35L49.2,62.04l-3-1.58L31.43,52.65l-4.14-2.19h-.01l-3.77-1.99-5.43-2.91L0,35.87l19.14-9.55,4.9-2.25,17.94-9.21L71.32,0l8.03,4.3,2.54,1.36,5.97,3.17,1.95,1.02.31.16-18.9,9.7-30.4,15.4-2.84,1.3,2.54,1.36,5.98,3.17,1.81-.91L79.64,24.16l18.89-9.7,8.25,4.36.8.41,8.55,4.52.24.13,1.04.56L88.07,39.3,65.42,50.93l.78.41,8.55,4.52L97.39,44.24l29.33-14.86,8.22,4.36Z" fill="#262161"></path></svg>